<?xml version="1.0" encoding="iso-8859-1"?>
<!-- Uploaded to: SVG Repo, www.svgrepo.com, Generator: SVG Repo Mixer Tools -->
<svg fill="#444444" height="800px" width="800px" version="1.1" id="Layer_1" xmlns="http://www.w3.org/2000/svg" xmlns:xlink="http://www.w3.org/1999/xlink" 
	 viewBox="0 0 512 512" xml:space="preserve">
<g>
	<g>
		<path d="M504.598,145.28c-6.571-10.987-17.472-17.28-29.931-17.28h-0.171c-20.395,0.085-43.84,7.765-62.72,20.523
			c-7.936,5.376-17.621,13.035-27.755,23.36V128c0-35.285-28.715-64-64-64c-7.531,0-14.635,1.557-21.333,3.947V64
			c0-35.285-28.715-64-64-64c-29.504,0-54.165,20.181-61.547,47.381c-7.36-2.987-15.381-4.715-23.787-4.715
			c-35.307,0-64,28.715-64,64v25.28C78.635,129.557,71.531,128,64.022,128c-35.307,0-64,28.715-64,64l0.043,146.923
			C10.689,492.352,124.075,512,221.675,512c73.216,0,122.453-29.675,159.147-95.424c8.811-14.251,35.456-67.968,61.995-121.749
			c7.829-15.851,13.739-27.861,15.573-31.317c8.704-16.512,18.261-29.291,27.584-36.885c10.411-8.512,16.96-19.093,22.464-29.248
			C513.003,188.971,514.497,161.813,504.598,145.28z"/>
	</g>
</g>
</svg>